<svg width="712" height="771" viewBox="0 0 712 771" fill="none" xmlns="http://www.w3.org/2000/svg">
<path d="M325.936 44.9606C340.749 48.3652 355.901 51.4762 371.145 54.6061C403.804 61.3116 436.883 68.1037 467.958 78.0548C513.515 92.6438 554.655 113.995 583.65 151.728C611.918 188.514 615.062 233.286 613.566 280.353C613.235 290.794 612.674 301.349 612.111 311.953C610.139 349.097 608.135 386.835 615.824 422.318C621.371 447.921 631.692 472.772 643.556 497.191C649.489 509.402 655.81 521.51 662.116 533.552L662.965 535.174C668.987 546.672 674.977 558.11 680.59 569.532C704.107 617.382 720.936 664.807 705.625 714.574C690.081 765.104 654.114 802.845 610.004 833.6C568.906 862.254 520.786 884.813 475.604 905.995C472.286 907.55 468.984 909.098 465.702 910.64C418.484 932.83 368.243 955.576 317.473 968.577C266.707 981.576 215.45 984.822 166.191 968.045C118.635 951.849 87.8029 914.471 60.3688 871.709C52.4389 859.349 44.8084 846.565 37.1402 833.718C31.5345 824.327 25.9087 814.902 20.1311 805.583C6.46469 783.542 -8.01822 762.157 -24.9852 743.442C-41.103 725.664 -60.6984 710.135 -81.1692 695.361C-89.674 689.223 -98.3205 683.221 -106.934 677.243C-119.076 668.815 -131.152 660.433 -142.67 651.78C-182.022 622.217 -214.522 589.72 -219.809 542.335C-225.104 494.873 -199.265 456.596 -166.741 419.305C-159.089 410.531 -151.073 401.819 -143.012 393.058C-142.511 392.513 -142.01 391.969 -141.509 391.424C-132.944 382.113 -124.351 372.739 -116.12 363.179C-99.6604 344.061 -84.6336 324.18 -74.1595 302.525C-63.0752 279.609 -56.3134 254.181 -51.068 228.096C-48.4452 215.053 -46.2003 201.839 -43.9846 188.689C-43.8796 188.066 -43.7747 187.443 -43.6698 186.82C-41.5606 174.297 -39.463 161.843 -37.0738 149.648C-27.0384 98.4237 -11.8851 51.94 30.6227 24.5851C73.0559 -2.72186 122.15 -3.33686 173.04 5.74797C198.483 10.29 224.354 17.2526 250.047 24.5021C254.46 25.7474 258.868 27.0012 263.268 28.2526C284.475 34.2843 305.487 40.2606 325.936 44.9606Z" stroke="#bf9376"/>
<path d="M410.929 365.057C450.511 396.5 475.107 439.621 497.963 484.822C501.631 492.077 505.447 499.323 509.269 506.58C518.425 523.966 527.616 541.42 534.905 559.235C545.23 584.469 551.704 610.358 548.806 637.655C542.619 695.942 510.968 750.384 465.855 787.885C421.08 825.107 362.12 844.237 303.954 841.184C276.96 839.767 252.791 829.698 229.617 816.34C218.03 809.66 206.699 802.163 195.39 794.518C193.187 793.03 190.985 791.535 188.783 790.04C179.68 783.861 170.561 777.672 161.318 771.832C151.665 765.734 141.637 759.965 131.617 754.201C129.911 753.22 128.206 752.238 126.502 751.256C114.788 744.499 103.171 737.67 92.2379 730.236C70.3711 715.369 51.2746 698.104 39.6505 674.218C15.7584 625.123 21.7468 567.172 35.9351 514.297C49.8156 462.568 79.8352 418.154 118.408 380.911C159.277 341.451 204.76 299.739 261.252 296.678C317.306 293.641 366.789 329.992 410.929 365.057Z" stroke="#bf9376"/>
<path d="M507.261 288.389C508.616 289.486 509.457 290.99 510.238 292.563C511.088 294.275 512.175 295.983 511.976 297.891C511.764 299.924 510.681 301.823 509.137 303.13C507.604 304.428 505.586 305.095 503.595 304.989C501.744 304.89 500.282 303.582 498.715 302.573C497.173 301.581 495.351 300.839 494.553 299.169C493.735 297.455 493.94 295.433 494.425 293.592C494.9 291.788 495.928 290.24 497.247 288.942C498.642 287.57 500.2 286.113 502.137 286.006C504.059 285.9 505.754 287.17 507.261 288.389Z" fill="#bd8b69"/>
<path d="M550.751 554.338C554.595 556.661 556.003 561.499 557.579 565.799C559.073 569.877 560.831 574.234 559.566 578.395C558.34 582.431 554.455 584.74 551.09 587.155C548.118 589.286 544.882 590.63 541.354 591.459C537.312 592.409 533.089 593.897 529.248 592.287C525.164 590.575 521.668 586.991 520.346 582.651C519.074 578.476 521.658 574.328 522.469 570.032C523.307 565.598 522.123 560.351 525.171 557.109C528.253 553.829 533.322 554.278 537.725 553.801C542.155 553.321 546.907 552.015 550.751 554.338Z" fill="#bd8b69"/>
<path d="M123.304 352.633C129.593 354.798 134.523 359.489 137.207 365.623C140.053 372.125 141.438 379.761 137.854 385.88C134.305 391.939 127.017 394.19 120.075 394.875C113.654 395.51 107.296 393.732 102.505 389.372C97.63 384.935 94.8068 378.684 95.0103 372.063C95.2256 365.058 97.8488 357.995 103.59 354.053C109.32 350.118 116.744 350.375 123.304 352.633Z" fill="#bd8b69"/>
</svg>
